<svg id="Accounting" xmlns="http://www.w3.org/2000/svg" viewBox="0 0 364.11 474.01"><defs><style>.cls-1{fill:#352f2d;}.cls-2{fill:#88bfb7;}.cls-3{fill:#ccfef8;}.cls-4{fill:#41cfc1;}.cls-5{fill:#776b69;}.cls-6{fill:#42aa92;}.cls-7{fill:#e04327;}.cls-8{fill:#982023;}</style></defs><title>cost</title><g id="Calculator"><rect class="cls-1" width="364.11" height="474.01" rx="16.55"/><path class="cls-2" d="M1033.2,508H762.86a16.55,16.55,0,0,0-16.55,16.55V600a16.54,16.54,0,0,0,16.55,16.55H1033.2A16.54,16.54,0,0,0,1049.75,600v-75.4A16.55,16.55,0,0,0,1033.2,508Z" transform="translate(-715.96 -473.79)"/><path class="cls-3" d="M979.47,508H943.93l-80.6,104.9a15,15,0,0,0-2,3.6h36.36l79.19-103.06A14.63,14.63,0,0,0,979.47,508Z" transform="translate(-715.96 -473.79)"/><path class="cls-3" d="M957.6,573.16a8,8,0,0,0,11.21-1.47l48.9-63.65H997.56L956.13,562A8,8,0,0,0,957.6,573.16Z" transform="translate(-715.96 -473.79)"/><rect class="cls-4" x="258.85" y="292.18" width="74.48" height="145.28" rx="16.55"/><rect class="cls-5" x="31.03" y="370.6" width="66.86" height="66.86" rx="11.49"/><rect class="cls-5" x="106.25" y="370.6" width="66.86" height="66.86" rx="11.49"/><rect class="cls-5" x="183.48" y="370.6" width="66.86" height="66.86" rx="11.49"/><rect class="cls-5" x="31.03" y="292.18" width="66.86" height="66.86" rx="11.49"/><rect class="cls-5" x="106.25" y="292.18" width="66.86" height="66.86" rx="11.49"/><rect class="cls-5" x="183.48" y="292.18" width="66.86" height="66.86" rx="11.49"/><rect class="cls-5" x="30.02" y="213.56" width="66.86" height="66.86" rx="11.49"/><rect class="cls-5" x="105.23" y="213.56" width="66.86" height="66.86" rx="11.49"/><rect class="cls-5" x="182.47" y="213.56" width="66.86" height="66.86" rx="11.49"/><rect class="cls-6" x="258.85" y="213.56" width="74.48" height="66.86" rx="16.55"/><rect class="cls-7" x="30.02" y="162.06" width="219.31" height="33.56" rx="16.55"/><rect class="cls-8" x="263.51" y="162.06" width="69.82" height="34.71" rx="16.55"/></g></svg>