<svg xmlns="http://www.w3.org/2000/svg" xmlns:xlink="http://www.w3.org/1999/xlink" viewBox="0 0 573.33 402.93"><defs><style>.cls-1{fill:none;clip-rule:evenodd;}.cls-2{isolation:isolate;}.cls-3,.cls-6{fill:#eb0001;}.cls-18,.cls-4{fill:#bc0a09;}.cls-10,.cls-11,.cls-12,.cls-23,.cls-4,.cls-5,.cls-6,.cls-7,.cls-8,.cls-9{fill-rule:evenodd;}.cls-5{fill:#fff;}.cls-8{fill:#4d4d4d;}.cls-9{fill:#ffb400;}.cls-10{fill:#02163d;}.cls-11{fill:#89a1a1;}.cls-12{fill:#979797;}.cls-12,.cls-23{mix-blend-mode:multiply;}.cls-13{clip-path:url(#clip-path);}.cls-14{fill:#940909;}.cls-15{fill:#ffb38a;}.cls-16{fill:#a2e2e1;}.cls-17{fill:#8ececc;}.cls-19{fill:#300c0f;}.cls-20{fill:#e6e2da;}.cls-21{fill:#d58d67;}.cls-22{fill:#030404;}.cls-23{fill:#c6d7d7;}</style><clipPath id="clip-path" transform="translate(-426.95 -214.07)"><path class="cls-1" d="M818.69,270.34v74.18a7.82,7.82,0,0,0,7.8,7.8H895.9a7.5,7.5,0,0,1,5.57,2.34l18.11,18.52a7.53,7.53,0,0,0,5.58,2.35H970.1a7.8,7.8,0,0,0,7.19-10.82l-40.82-97.38a7.67,7.67,0,0,0-7.2-4.78H826.49A7.81,7.81,0,0,0,818.69,270.34Z"/></clipPath></defs><title>delivery</title><g class="cls-2"><g id="Layer_1" data-name="Layer 1"><rect class="cls-3" x="7.47" width="362.11" height="261.01" rx="6.71"/><path class="cls-4" d="M445,224.6v16.56H786V224.6Zm0,22.23v34.56H786V246.83Zm0,40.23v34.56H786V287.06Zm0,40.24v34.56H786V327.3Zm0,40.23v34.56H786V367.53Zm0,40.24v34.56H786V407.77ZM445,448v16.55H786V448Z" transform="translate(-426.95 -214.07)"/><path class="cls-5" d="M616.58,287.06c30.82,0,55.8,25.75,55.8,57.52,0,1.33,0,2.65-.14,4L644.61,337l11.49-11.28-69.94-29.32a54.33,54.33,0,0,1,30.42-9.3Zm46.33,89.57a55.28,55.28,0,0,1-46.33,25.46c-28.75,0-52.42-22.41-55.46-51.21l35.08,7.17-14,13.78,80.74,4.8Zm-92.28-76.44-36.14,35.48,81.08,16.59-11.49,11.28L696.46,369,627.8,340.25,639.29,329Z" transform="translate(-426.95 -214.07)"/><rect x="1.28" y="268.23" width="379.65" height="14.44"/><path class="cls-6" d="M809.43,248.12H938.87a7.66,7.66,0,0,1,7.19,4.78l53.61,127.89a7.43,7.43,0,0,1,.61,3V549.36a5.17,5.17,0,0,1-5.16,5.16H973.2a66.8,66.8,0,0,0-133.6,0H809.43a5.17,5.17,0,0,1-5.16-5.16V253.28A5.17,5.17,0,0,1,809.43,248.12Z" transform="translate(-426.95 -214.07)"/><path class="cls-4" d="M814,270.34a12.49,12.49,0,0,1,12.48-12.47H929.27a12.33,12.33,0,0,1,11.51,7.65l40.83,97.39a12.48,12.48,0,0,1-11.51,17.3H925.16a12.2,12.2,0,0,1-8.92-3.76l-18.11-18.52a2.89,2.89,0,0,0-2.23-.94H826.49A12.49,12.49,0,0,1,814,344.52Z" transform="translate(-426.95 -214.07)"/><path class="cls-5" d="M818.69,270.34v74.18a7.82,7.82,0,0,0,7.8,7.8H895.9a7.5,7.5,0,0,1,5.57,2.34l18.11,18.52a7.53,7.53,0,0,0,5.58,2.35H970.1a7.8,7.8,0,0,0,7.19-10.82l-40.82-97.38a7.67,7.67,0,0,0-7.2-4.78H826.49A7.81,7.81,0,0,0,818.69,270.34Z" transform="translate(-426.95 -214.07)"/><path class="cls-4" d="M821,386.63V519.17a7.82,7.82,0,0,0,4.1,6.86,86.16,86.16,0,0,1,153.32-18.8V409.84a7.81,7.81,0,0,0-7.79-7.79H920.73a7.53,7.53,0,0,1-5.58-2.35L897,381.18a7.51,7.51,0,0,0-5.57-2.35H828.78A7.82,7.82,0,0,0,821,386.63Z" transform="translate(-426.95 -214.07)"/><path class="cls-7" d="M1000.28,403.7H987.64a2.85,2.85,0,0,0-2.84,2.84v105a2.85,2.85,0,0,0,2.84,2.84h12.64Z" transform="translate(-426.95 -214.07)"/><path class="cls-8" d="M1000.28,411.12h-8.83A1.49,1.49,0,0,0,990,412.6v3.48a1.49,1.49,0,0,0,1.49,1.49h8.83v-6.45Zm0,95.81v-6.44h-8.83A1.49,1.49,0,0,0,990,502v3.48a1.49,1.49,0,0,0,1.49,1.48Zm0-9.93v-6.44h-8.83A1.49,1.49,0,0,0,990,492v3.48a1.49,1.49,0,0,0,1.49,1.48Zm0-9.93v-6.44h-8.83a1.49,1.49,0,0,0-1.49,1.48v3.48a1.49,1.49,0,0,0,1.49,1.48Zm0-9.93V470.7h-8.83a1.49,1.49,0,0,0-1.49,1.48v3.48a1.49,1.49,0,0,0,1.49,1.48Zm0-9.93v-6.44h-8.83a1.49,1.49,0,0,0-1.49,1.48v3.48a1.49,1.49,0,0,0,1.49,1.48Zm0-9.92v-6.45h-8.83a1.49,1.49,0,0,0-1.49,1.48v3.48a1.49,1.49,0,0,0,1.49,1.49Zm0-9.93v-6.45h-8.83a1.49,1.49,0,0,0-1.49,1.48v3.48a1.49,1.49,0,0,0,1.49,1.49Zm0-9.93V431h-8.83a1.49,1.49,0,0,0-1.49,1.48v3.48a1.49,1.49,0,0,0,1.49,1.49Zm0-9.93v-6.45h-8.83a1.49,1.49,0,0,0-1.49,1.48V426a1.49,1.49,0,0,0,1.49,1.49Z" transform="translate(-426.95 -214.07)"/><rect class="cls-3" x="407.3" y="175.44" width="21.92" height="8.51" rx="2.45"/><path class="cls-9" d="M1000.28,424.81a27.66,27.66,0,0,0,0,40.52Z" transform="translate(-426.95 -214.07)"/><path class="cls-6" d="M719.44,482.3h38.37A33.79,33.79,0,0,1,791.5,516h0a33.79,33.79,0,0,1-33.69,33.69H719.44A33.79,33.79,0,0,1,685.75,516h0A33.79,33.79,0,0,1,719.44,482.3Z" transform="translate(-426.95 -214.07)"/><path class="cls-4" d="M728.1,482.3v67.38h-8.66c-.76,0-1.52,0-2.27-.07V482.38c.75-.05,1.51-.08,2.27-.08Zm21,0h8.66c.76,0,1.52,0,2.27.08v67.23c-.75,0-1.51.07-2.27.07h-8.66Z" transform="translate(-426.95 -214.07)"/><path class="cls-10" d="M906.47,492.69a62.16,62.16,0,1,1-62.16,62.15,62.15,62.15,0,0,1,62.16-62.15Zm0,23.95a38.21,38.21,0,1,0,38.2,38.2A38.2,38.2,0,0,0,906.47,516.64Z" transform="translate(-426.95 -214.07)"/><path class="cls-11" d="M906.47,516.64a38.21,38.21,0,1,1-38.2,38.2,38.2,38.2,0,0,1,38.2-38.2ZM892.8,537.23l5.49,5.49a14.45,14.45,0,0,1,5.39-2.24v-7.77a22.17,22.17,0,0,0-10.88,4.52Zm1.54,9.43-5.49-5.49a22.24,22.24,0,0,0-4.51,10.89h7.77a14.58,14.58,0,0,1,2.23-5.4Zm-2.23,11h-7.77a22.23,22.23,0,0,0,4.51,10.89l5.49-5.49a14.58,14.58,0,0,1-2.23-5.4Zm6.18,9.34-5.49,5.49A22.15,22.15,0,0,0,903.68,577v-7.76a14.62,14.62,0,0,1-5.39-2.24Zm11,2.24V577a22.23,22.23,0,0,0,10.89-4.51l-5.5-5.49a14.55,14.55,0,0,1-5.39,2.24ZM918.6,563l5.49,5.49a22.23,22.23,0,0,0,4.51-10.89h-7.77a14.58,14.58,0,0,1-2.23,5.4Zm2.23-11h7.77a22.15,22.15,0,0,0-4.51-10.89l-5.49,5.49a14.58,14.58,0,0,1,2.23,5.4Zm-6.18-9.34,5.5-5.49a22.24,22.24,0,0,0-10.89-4.52v7.77A14.39,14.39,0,0,1,914.65,542.72Z" transform="translate(-426.95 -214.07)"/><path class="cls-12" d="M906.47,520.54a34.3,34.3,0,1,1-34.3,34.3,34.3,34.3,0,0,1,34.3-34.3Zm0,5.39a28.91,28.91,0,1,0,28.91,28.91A28.91,28.91,0,0,0,906.47,525.93Z" transform="translate(-426.95 -214.07)"/><path class="cls-12" d="M906.47,548.34a6.51,6.51,0,1,1-6.5,6.5A6.51,6.51,0,0,1,906.47,548.34Z" transform="translate(-426.95 -214.07)"/><path class="cls-10" d="M616.23,492.69a62.16,62.16,0,1,1-62.15,62.15,62.15,62.15,0,0,1,62.15-62.15Zm0,23.95a38.21,38.21,0,1,0,38.21,38.2A38.2,38.2,0,0,0,616.23,516.64Z" transform="translate(-426.95 -214.07)"/><path class="cls-11" d="M616.23,516.64a38.21,38.21,0,1,1-38.2,38.2,38.21,38.21,0,0,1,38.2-38.2Zm-13.67,20.59,5.49,5.49a14.43,14.43,0,0,1,5.4-2.24v-7.77a22.16,22.16,0,0,0-10.89,4.52Zm1.55,9.43-5.49-5.49a22.16,22.16,0,0,0-4.52,10.89h7.77a14.43,14.43,0,0,1,2.24-5.4Zm-2.24,11H594.1a22.32,22.32,0,0,0,4.51,10.89l5.5-5.49a14.43,14.43,0,0,1-2.24-5.4Zm6.18,9.34-5.49,5.49A22.15,22.15,0,0,0,613.45,577v-7.76a14.6,14.6,0,0,1-5.4-2.24Zm11,2.24V577a22.23,22.23,0,0,0,10.89-4.51L624.42,567a14.6,14.6,0,0,1-5.4,2.24Zm9.34-6.18,5.49,5.49a22.23,22.23,0,0,0,4.51-10.89h-7.77a14.42,14.42,0,0,1-2.23,5.4Zm2.24-11h7.76a22.15,22.15,0,0,0-4.51-10.89l-5.49,5.49a14.6,14.6,0,0,1,2.24,5.4Zm-6.18-9.34,5.49-5.49A22.24,22.24,0,0,0,619,532.71v7.77A14.43,14.43,0,0,1,624.42,542.72Z" transform="translate(-426.95 -214.07)"/><path class="cls-12" d="M616.23,520.54a34.3,34.3,0,1,1-34.3,34.3,34.3,34.3,0,0,1,34.3-34.3Zm0,5.39a28.91,28.91,0,1,0,28.91,28.91A28.92,28.92,0,0,0,616.23,525.93Z" transform="translate(-426.95 -214.07)"/><path class="cls-12" d="M616.23,548.34a6.51,6.51,0,1,1-6.5,6.5A6.5,6.5,0,0,1,616.23,548.34Z" transform="translate(-426.95 -214.07)"/><path class="cls-10" d="M489.11,492.69A62.16,62.16,0,1,1,427,554.84a62.15,62.15,0,0,1,62.16-62.15Zm0,23.95a38.21,38.21,0,1,0,38.2,38.2A38.21,38.21,0,0,0,489.11,516.64Z" transform="translate(-426.95 -214.07)"/><path class="cls-11" d="M489.11,516.64a38.21,38.21,0,1,1-38.21,38.2,38.2,38.2,0,0,1,38.21-38.2Zm-13.68,20.59,5.49,5.49a14.43,14.43,0,0,1,5.4-2.24v-7.77a22.24,22.24,0,0,0-10.89,4.52Zm1.55,9.43-5.49-5.49A22.15,22.15,0,0,0,467,552.06h7.76a14.6,14.6,0,0,1,2.24-5.4Zm-2.24,11H467a22.13,22.13,0,0,0,4.51,10.89L477,563a14.6,14.6,0,0,1-2.24-5.4Zm6.18,9.34-5.49,5.49A22.23,22.23,0,0,0,486.32,577v-7.76a14.6,14.6,0,0,1-5.4-2.24Zm11,2.24V577a22.15,22.15,0,0,0,10.89-4.51L497.29,567a14.6,14.6,0,0,1-5.4,2.24Zm9.34-6.18,5.49,5.49a22.13,22.13,0,0,0,4.51-10.89h-7.76a14.6,14.6,0,0,1-2.24,5.4Zm2.24-11h7.77a22.16,22.16,0,0,0-4.52-10.89l-5.49,5.49a14.43,14.43,0,0,1,2.24,5.4Zm-6.18-9.34,5.49-5.49a22.16,22.16,0,0,0-10.89-4.52v7.77A14.43,14.43,0,0,1,497.29,542.72Z" transform="translate(-426.95 -214.07)"/><path class="cls-12" d="M489.11,520.54a34.3,34.3,0,1,1-34.31,34.3,34.3,34.3,0,0,1,34.31-34.3Zm0,5.39A28.91,28.91,0,1,0,518,554.84,28.91,28.91,0,0,0,489.11,525.93Z" transform="translate(-426.95 -214.07)"/><path class="cls-12" d="M489.11,548.34a6.51,6.51,0,1,1-6.51,6.5A6.5,6.5,0,0,1,489.11,548.34Z" transform="translate(-426.95 -214.07)"/><g class="cls-13"><path class="cls-14" d="M896.88,371a13.36,13.36,0,0,0-1.07-4.33q-1.69-4.61-3.41-9.22c-.36-1-.73-2-1.12-2.94-.51-1.28-1.07-2.53-1.64-3.79l-.52-1.17-2.47-5.49a3.86,3.86,0,0,0-1.08-1.63c-.9-.69-2.17-.49-3.3-.36a19.53,19.53,0,0,1-14.86-4.53,43.9,43.9,0,0,0,4.47,19.16,53.79,53.79,0,0,0,9.18,13.55c3.25,3.49,5.87,5.27,10.61,5.29C894.62,375.54,896.93,374.24,896.88,371Z" transform="translate(-426.95 -214.07)"/><path class="cls-15" d="M900,303c.42,2.8,1.35,5.49,1.84,8.28A27,27,0,0,1,900,326.77c-1.65,3.76-4.42,7.31-8.32,8.61-2,.68-4.24.7-6.32,1.23a13.31,13.31,0,0,0-9.09,8.37,59.53,59.53,0,0,1-17.84-10.56,61.31,61.31,0,0,0-2.21-31.27c-.44-1.3-.91-2.82-.15-4a4.15,4.15,0,0,1,2-1.35,65.13,65.13,0,0,1,40.25-3.3c2,.48,2.42.67,1.89,2.67A14.35,14.35,0,0,0,900,303Z" transform="translate(-426.95 -214.07)"/><path class="cls-16" d="M901,306.15a14.63,14.63,0,0,1,4.12,10c0,4.49-2,8.7-4,12.73a22.46,22.46,0,0,1-3.5,5.65,7.66,7.66,0,0,1-5.87,2.68c-2.6-.17-4.72-2.05-6.62-3.83l-5.8-5.44a4.75,4.75,0,0,1-1.72-2.52.81.81,0,0,0,1.18-.15,2.24,2.24,0,0,0,.39-1.27c.28-2.79.48-5.59.62-8.39.05-1-.27-3,.46-3.74s2.86-.8,3.72-1Z" transform="translate(-426.95 -214.07)"/><path class="cls-16" d="M858.58,316.82a.5.5,0,0,0-.24.94c.21.12.57,0,.53-.3a4.27,4.27,0,0,0-.92-2.21c-.42-.52-1.28-1.4-2-.81a1.86,1.86,0,0,0-.15,2.18,5.13,5.13,0,0,0,2,1.85c.34.22.71-.27.43-.56a1.21,1.21,0,0,0-1.81.25,3.16,3.16,0,0,0-.47,1.1,1.88,1.88,0,0,0,0,1.1,1.1,1.1,0,0,0,1.77.29,3.33,3.33,0,0,0,.68-1l.78-1.45c.21-.4-.4-.76-.62-.35l-.84,1.56c-.15.28-.54,1.05-1,.8s0-1,.09-1.3.56-.9.94-.52c.14-.19.28-.38.43-.56a5.84,5.84,0,0,1-1.42-1.14c-.31-.39-.7-1.16-.37-1.64.19-.27.47.05.65.2a3.93,3.93,0,0,1,.54.61,3.56,3.56,0,0,1,.61,1.57l.54-.31-.12.38C859,317.48,859,316.77,858.58,316.82Z" transform="translate(-426.95 -214.07)"/><path class="cls-17" d="M880.25,319.52a11,11,0,0,0,.22,5.57c.73,1.84,2.38,3.12,3.95,4.32l4.58,3.47a8,8,0,0,0,3.81,1.92c1.44.15,3.09-.8,3.14-2.24,0-1.14-.87-2.06-1.7-2.83l-4.15-3.82,9.77,0,.23-4.69-7.93-.61,7.56-1.54a3.92,3.92,0,0,0,1.89-.74,2.63,2.63,0,0,0,.75-2.28,7.75,7.75,0,0,0-.77-2.37l-7.94,2.25a2.07,2.07,0,0,1-1.07.09.68.68,0,0,1-.5-.83l6.54-3.42a3.94,3.94,0,0,0,1.83-1.48,1.4,1.4,0,0,0-.61-2c-.8-.23-2.64.5-3.46.66-1.25.25-2.49.51-3.73.79q-3.58.78-7.13,1.7c-1.47.38-3.61.52-4.36,2C880.35,315.11,880.49,317.71,880.25,319.52Z" transform="translate(-426.95 -214.07)"/><path class="cls-18" d="M883.84,295a191.75,191.75,0,0,1,25.88,1.81,1.4,1.4,0,0,0,1.06-2.48,17.32,17.32,0,0,0-2.95-1.84c-2.12-1.1-4.41-2.1-5.94-3.95-1.69-2-2.19-4.79-3.34-7.18-2.1-4.36-6.43-7.39-11.09-8.69a31.41,31.41,0,0,0-14.4-.1c-6,1.18-12.1,3.55-16.33,8S850.47,292,853,297.67a9.1,9.1,0,0,0,1.47,2.38c.91,1,1.3.56,2.45.08a57.86,57.86,0,0,1,6.24-2.22,71.53,71.53,0,0,1,13.13-2.47Q880,295.07,883.84,295Z" transform="translate(-426.95 -214.07)"/><path class="cls-3" d="M900,289.14c-2.16-4.29-4.65-8.53-8.28-11.69s-8.58-5.08-13.29-4.1c-5.39,1.12-9.49,5.93-11,11.24-.42,1.52-.74,3.23-2,4.21-1.71,1.35-4.5.73-6,2.29-1.08,1.09-1.14,2.88-2.18,4a9.3,9.3,0,0,1-1.8,1.28A2.92,2.92,0,0,0,854,298c-.88,3.6,5.6,0,6.64-.43q4.56-1.82,9.26-3.26a120.75,120.75,0,0,1,19.17-4.21q2.75-.37,5.51-.63C895.17,289.45,899.78,288.8,900,289.14Z" transform="translate(-426.95 -214.07)"/><path class="cls-19" d="M871.44,309.3l-2.73.36a13.32,13.32,0,0,0-1-5.43,5.22,5.22,0,0,0-4.23-3.17A5,5,0,0,0,859,304.2a9.85,9.85,0,0,0-.39,5.77c.35,1.93,1,3.79,1.34,5.72a9.94,9.94,0,0,1-.39,5.77,10.81,10.81,0,0,0-3.37-7.59c.4.06.63-.5.47-.88s-.53-.6-.81-.9a4.36,4.36,0,0,1-.83-2.63c-.13-1.52-.26-3-.4-4.57a5.84,5.84,0,0,1,.34-3.24,5.61,5.61,0,0,1,3-2.21,56.6,56.6,0,0,1,12.53-3.72q1.65-.29,3.3-.48c1-.11,1.7-.36,1.41.82-.49,2-1.79,4-2.38,6A33.86,33.86,0,0,0,871.44,309.3Z" transform="translate(-426.95 -214.07)"/><path class="cls-20" d="M891.19,302.25l2.85.51c.62.11,1.36.14,1.62-.56a1,1,0,0,0-.46-1.29,4.28,4.28,0,0,0-2,.45C892.79,301.51,891.57,302.32,891.19,302.25Z" transform="translate(-426.95 -214.07)"/><path class="cls-19" d="M897.66,298.15a4.12,4.12,0,0,0-2.23-1,4.84,4.84,0,0,0-2.24,0,7.66,7.66,0,0,0-3.56,2.41s0,0,0,0a5,5,0,0,1,3.65-1.67,11.08,11.08,0,0,1,1.91,0,5.53,5.53,0,0,1,1,.25c.39.14.74.36,1.13.5S897.87,298.37,897.66,298.15Z" transform="translate(-426.95 -214.07)"/><path class="cls-19" d="M896.85,300.32a9,9,0,0,0-1,.15,1.74,1.74,0,0,0,.74-1.27c0-.19-.28-.19-.3,0v.07a1.48,1.48,0,0,1-.82,1.18.09.09,0,0,0,0,.1l0,0c-.53.12-1.05.28-1.55.44a28.08,28.08,0,0,0-2.94,1.1.21.21,0,0,0,0,.37,3.1,3.1,0,0,0,1.27.29l1.63.11c.48,0,1,.05,1.44.1a.09.09,0,0,0,.14,0h0a1.42,1.42,0,0,1,.72.25c.16.12.26.3.43.42a.06.06,0,0,0,.09,0c.07-.34-.22-.64-.48-.81a1.36,1.36,0,0,0-.52-.19,2.46,2.46,0,0,0,.16-1.79c.37-.1.75-.22,1.12-.35C897,300.45,896.94,300.31,896.85,300.32Zm-1.57.65a1.87,1.87,0,0,1,0,.58,2.47,2.47,0,0,1-.1.29c-.23,0-.3-.22-.3-.45s.15-.26.21-.35Zm-2.39,1.43a8.78,8.78,0,0,1-1.34-.12c.8-.34,1.6-.65,2.42-.92l.24-.08a1.39,1.39,0,0,0,0,1.06,1.63,1.63,0,0,0,.11.17Z" transform="translate(-426.95 -214.07)"/><path class="cls-16" d="M880.21,312l-.3.51-11.45-5.78c-.31-.16-1.17-.67-.77-1.15s1.29.33,1.58.47c1.27.6,2.51,1.23,3.75,1.88C873.63,308.22,880.27,311.85,880.21,312Z" transform="translate(-426.95 -214.07)"/><path class="cls-16" d="M858.76,318.07l15.82,6.4,4.45,1.8a.54.54,0,0,0,.29-1l-15.83-6.4L859,317a.53.53,0,0,0-.65.37A.54.54,0,0,0,858.76,318.07Z" transform="translate(-426.95 -214.07)"/><path class="cls-21" d="M865.27,304.43a2.3,2.3,0,0,0-2.67-1,3.42,3.42,0,0,0-2.08,2.15,6.72,6.72,0,0,0-.23,3.06,13.83,13.83,0,0,0,2.18,6c.45.67,1.17,1.39,1.95,1.15,1.88-.56.88-4.08.46-5.3C864.17,308.41,866.22,306.33,865.27,304.43Z" transform="translate(-426.95 -214.07)"/><path class="cls-18" d="M879.64,340.82a13.8,13.8,0,0,0,1.39,4.87,13.22,13.22,0,0,1,1.37,4.88,4.55,4.55,0,0,1-2.26,4.25h5.28q1.26,10.63,2.5,21.27L845,374.36c-.46-5.44-2.2-10.71-2.8-16.14s.14-11.41,3.88-15.39c2.21-2.36,5.29-3.82,7.27-6.38a20,20,0,0,0,2.76-5.92c.28-.81.83-4,1.63-4.31,1-.44,2,1.3,2.47,1.92A37.3,37.3,0,0,0,872.31,338C873,338.35,879.64,340.78,879.64,340.82Z" transform="translate(-426.95 -214.07)"/><path class="cls-3" d="M844.62,355.57a53.6,53.6,0,0,0,4.44,17.18,83.47,83.47,0,0,0,23.3.66,42.22,42.22,0,0,0-2.68-15.79c-.76-1.93-1.69-3.78-2.62-5.62a27.47,27.47,0,0,0-2.73-4.63,14,14,0,0,0-10.93-5.1c-3.82,0-6.07,1.25-7.76,4.75C844.36,349.66,844.37,352.71,844.62,355.57Z" transform="translate(-426.95 -214.07)"/><path class="cls-22" d="M942.49,394.07h0a3.36,3.36,0,0,1-2.08-4.28l10.68-30.74a3.37,3.37,0,0,1,4.29-2.08h0a3.37,3.37,0,0,1,2.07,4.29L946.77,392A3.37,3.37,0,0,1,942.49,394.07Z" transform="translate(-426.95 -214.07)"/></g><path class="cls-23" d="M825.8,331.75l130.31.25a7.65,7.65,0,0,1,7.17,4.78L975.1,365c1,2.52,3,4.84,1.49,7.08a7.59,7.59,0,0,1-6.49,3.48H925.16a7.53,7.53,0,0,1-5.58-2.35l-18.11-18.52a7.5,7.5,0,0,0-5.57-2.34H826.49a7.77,7.77,0,0,1-4.82-1.68V335.88A4.14,4.14,0,0,1,825.8,331.75Z" transform="translate(-426.95 -214.07)"/></g></g></svg>