<svg xmlns="http://www.w3.org/2000/svg" viewBox="0 0 486.65 706"><defs><style>.cls-1{isolation:isolate;}.cls-2{opacity:0.05;mix-blend-mode:multiply;}.cls-12,.cls-13,.cls-3,.cls-5{fill:none;stroke-miterlimit:10;}.cls-3,.cls-5{stroke:#000;}.cls-12,.cls-3{stroke-linecap:round;stroke-width:6.66px;}.cls-4{opacity:0.2;}.cls-13,.cls-5{stroke-width:3.47px;}.cls-6{fill:#ffae0c;}.cls-7{fill:#fff;}.cls-8{fill:#e0e0e0;}.cls-9{fill:#bdbdbd;}.cls-10{fill:#4ea700;}.cls-11{fill:#9a9b9c;}.cls-12{stroke:#e0e0e0;}.cls-13{stroke:#4d7991;}</style></defs><title>form</title><g class="cls-1"><g id="Layer_1" data-name="Layer 1"><g class="cls-2"><rect x="7" y="71.97" width="479.65" height="634.03" rx="24.76"/><path d="M682.67,154.17V622.7L603,714.24H270.47A24.44,24.44,0,0,1,246,689.79V154.17a24.44,24.44,0,0,1,24.44-24.44H658.23A24.44,24.44,0,0,1,682.67,154.17Z" transform="translate(-217.52 -33)"/><path d="M323.4,253.62a33.45,33.45,0,1,0,33.45,33.45A33.45,33.45,0,0,0,323.4,253.62Zm0,53.1a19.66,19.66,0,1,1,19.66-19.65A19.65,19.65,0,0,1,323.4,306.72Z" transform="translate(-217.52 -33)"/><path d="M323.4,357.26a33.45,33.45,0,1,0,33.45,33.44A33.44,33.44,0,0,0,323.4,357.26Zm0,53.1a19.66,19.66,0,1,1,19.66-19.66A19.66,19.66,0,0,1,323.4,410.36Z" transform="translate(-217.52 -33)"/><path d="M323.4,461.52A33.44,33.44,0,1,0,356.85,495,33.44,33.44,0,0,0,323.4,461.52Zm0,53.1A19.66,19.66,0,1,1,343.06,495,19.66,19.66,0,0,1,323.4,514.62Z" transform="translate(-217.52 -33)"/><rect x="187.16" y="224.28" width="230.92" height="13.18"/><rect x="187.16" y="247.48" width="230.92" height="13.18"/><rect x="187.16" y="270.68" width="230.92" height="13.18"/><rect x="187.16" y="327.91" width="230.92" height="13.18"/><rect x="187.16" y="351.11" width="230.92" height="13.18"/><rect x="187.16" y="374.32" width="230.92" height="13.18"/><rect x="187.16" y="432.17" width="230.92" height="13.18"/><rect x="187.16" y="455.37" width="230.92" height="13.18"/><rect x="187.16" y="478.57" width="230.92" height="13.18"/><polygon points="103.43 276.07 74.18 246.82 84.75 236.25 103.05 254.54 144.39 210.23 155.33 220.44 103.43 276.07"/><polygon points="103.43 374.01 74.18 344.76 84.75 334.19 103.05 352.48 144.39 308.17 155.33 318.38 103.43 374.01"/><polygon points="103.43 478.5 74.18 449.25 84.75 438.67 103.05 456.97 144.39 412.66 155.33 422.86 103.43 478.5"/><path d="M513,84.58a48.66,48.66,0,0,0-97.29,0c0,.36,0,.72,0,1.08V105H513V85.66C513,85.3,513,84.94,513,84.58ZM447.67,76A16.68,16.68,0,1,1,481,76v6.63H447.67Z" transform="translate(-217.52 -33)"/><rect x="230.14" y="49.64" width="33.36" height="1.7"/><path d="M513,84.58a48.66,48.66,0,0,0-97.29,0c0,.36,0,.72,0,1.08v1.7c0-.37,0-.72,0-1.08a48.66,48.66,0,0,1,97.29,0c0,.36,0,.71,0,1.08v-1.7C513,85.3,513,84.94,513,84.58Z" transform="translate(-217.52 -33)"/><path d="M513,85.66V105H415.69V85.66c0-.36,0-.72,0-1.08H513C513,84.94,513,85.3,513,85.66Z" transform="translate(-217.52 -33)"/><rect x="138.73" y="55.46" width="216.2" height="65.05" rx="3.97"/><path d="M563.06,88.46H365.64a9.38,9.38,0,0,0-9.39,9.39v1.69a9.38,9.38,0,0,1,9.39-9.38H563.06a9.38,9.38,0,0,1,9.39,9.38V97.85A9.38,9.38,0,0,0,563.06,88.46Z" transform="translate(-217.52 -33)"/><path d="M563.06,141.86H365.64a9.38,9.38,0,0,1-9.39-9.38v11.65a9.38,9.38,0,0,0,9.39,9.38H563.06a9.38,9.38,0,0,0,9.39-9.38V132.48A9.38,9.38,0,0,1,563.06,141.86Z" transform="translate(-217.52 -33)"/><path d="M551.62,105H377.08a2.43,2.43,0,0,1-2.43-2.43h0a2.44,2.44,0,0,1,2.43-2.43H551.62a2.45,2.45,0,0,1,2.43,2.43h0A2.44,2.44,0,0,1,551.62,105Z" transform="translate(-217.52 -33)"/><path d="M551.62,119.83H377.08a2.44,2.44,0,0,1-2.43-2.43h0a2.43,2.43,0,0,1,2.43-2.43H551.62a2.44,2.44,0,0,1,2.43,2.43h0A2.45,2.45,0,0,1,551.62,119.83Z" transform="translate(-217.52 -33)"/><path d="M551.62,134.63H377.08a2.43,2.43,0,0,1-2.43-2.43h0a2.43,2.43,0,0,1,2.43-2.42H551.62a2.44,2.44,0,0,1,2.43,2.42h0A2.44,2.44,0,0,1,551.62,134.63Z" transform="translate(-217.52 -33)"/><rect x="157.13" y="65.12" width="179.39" height="4.85" rx="0.95"/><path d="M551.62,117.78H377.08a2.43,2.43,0,0,1-2.43-2.43h0a2.43,2.43,0,0,1,2.43-2.42H551.62a2.44,2.44,0,0,1,2.43,2.42h0A2.44,2.44,0,0,1,551.62,117.78Z" transform="translate(-217.52 -33)"/><path d="M551.62,132.59H377.08a2.43,2.43,0,0,1-2.43-2.43h0a2.44,2.44,0,0,1,2.43-2.43H551.62a2.45,2.45,0,0,1,2.43,2.43h0A2.44,2.44,0,0,1,551.62,132.59Z" transform="translate(-217.52 -33)"/><rect class="cls-3" x="80.06" y="553.26" width="144.08" height="63.76"/><rect class="cls-3" x="263.51" y="553.26" width="144.08" height="63.76"/><path class="cls-4" d="M682.67,622.7,603,714.24H589.46l-12.69-55.59a31,31,0,0,1,26.81-30.75c1.69-.23,3.39-.45,5.08-.71,5.94-.85,11.9-1.48,17.88-1.77Z" transform="translate(-217.52 -33)"/><path d="M682.67,622.7H627.45A24.44,24.44,0,0,0,603,647.14v67.1Z" transform="translate(-217.52 -33)"/><circle class="cls-5" cx="367.09" cy="618.89" r="52.52" transform="matrix(0.38, -0.92, 0.92, 0.38, -562.82, 687.27)"/><path class="cls-5" d="M391.58,591a37.08,37.08,0,0,0-61.47,24.88Z" transform="translate(-217.52 -33)"/><path class="cls-5" d="M342.44,646.62a37.08,37.08,0,0,0,61.66-25Z" transform="translate(-217.52 -33)"/><line class="cls-5" x1="203.97" y1="580.31" x2="107.97" y2="619.17"/><line class="cls-5" x1="96.53" y1="590.92" x2="192.54" y2="552.06"/></g><rect class="cls-6" y="67.97" width="479.65" height="634.03" rx="24.76"/><path class="cls-7" d="M675.67,150.17V618.7L596,710.24H263.47A24.44,24.44,0,0,1,239,685.79V150.17a24.44,24.44,0,0,1,24.44-24.44H651.23A24.44,24.44,0,0,1,675.67,150.17Z" transform="translate(-217.52 -33)"/><path class="cls-8" d="M316.4,249.62a33.45,33.45,0,1,0,33.45,33.45A33.45,33.45,0,0,0,316.4,249.62Zm0,53.1a19.66,19.66,0,1,1,19.66-19.65A19.65,19.65,0,0,1,316.4,302.72Z" transform="translate(-217.52 -33)"/><path class="cls-8" d="M316.4,353.26a33.45,33.45,0,1,0,33.45,33.44A33.44,33.44,0,0,0,316.4,353.26Zm0,53.1a19.66,19.66,0,1,1,19.66-19.66A19.66,19.66,0,0,1,316.4,406.36Z" transform="translate(-217.52 -33)"/><path class="cls-8" d="M316.4,457.52A33.44,33.44,0,1,0,349.85,491,33.44,33.44,0,0,0,316.4,457.52Zm0,53.1A19.66,19.66,0,1,1,336.06,491,19.66,19.66,0,0,1,316.4,510.62Z" transform="translate(-217.52 -33)"/><rect class="cls-9" x="180.16" y="220.28" width="230.92" height="13.18"/><rect class="cls-9" x="180.16" y="243.48" width="230.92" height="13.18"/><rect class="cls-9" x="180.16" y="266.68" width="230.92" height="13.18"/><rect class="cls-9" x="180.16" y="323.91" width="230.92" height="13.18"/><rect class="cls-9" x="180.16" y="347.11" width="230.92" height="13.18"/><rect class="cls-9" x="180.16" y="370.32" width="230.92" height="13.18"/><rect class="cls-9" x="180.16" y="428.17" width="230.92" height="13.18"/><rect class="cls-9" x="180.16" y="451.37" width="230.92" height="13.18"/><rect class="cls-9" x="180.16" y="474.57" width="230.92" height="13.18"/><polygon class="cls-10" points="96.43 272.07 67.18 242.82 77.75 232.25 96.05 250.54 137.39 206.23 148.33 216.44 96.43 272.07"/><polygon class="cls-10" points="96.43 370.01 67.18 340.76 77.75 330.19 96.05 348.48 137.39 304.17 148.33 314.38 96.43 370.01"/><polygon class="cls-10" points="96.43 474.5 67.18 445.25 77.75 434.67 96.05 452.97 137.39 408.66 148.33 418.86 96.43 474.5"/><path class="cls-9" d="M506,80.58a48.66,48.66,0,0,0-97.29,0c0,.36,0,.72,0,1.08V101H506V81.66C506,81.3,506,80.94,506,80.58ZM440.67,72A16.68,16.68,0,1,1,474,72v6.63H440.67Z" transform="translate(-217.52 -33)"/><rect class="cls-9" x="223.14" y="45.64" width="33.36" height="1.7"/><path class="cls-8" d="M506,80.58a48.66,48.66,0,0,0-97.29,0c0,.36,0,.72,0,1.08v1.7c0-.37,0-.72,0-1.08a48.66,48.66,0,0,1,97.29,0c0,.36,0,.71,0,1.08v-1.7C506,81.3,506,80.94,506,80.58Z" transform="translate(-217.52 -33)"/><path class="cls-11" d="M506,81.66V101H408.69V81.66c0-.36,0-.72,0-1.08H506C506,80.94,506,81.3,506,81.66Z" transform="translate(-217.52 -33)"/><rect class="cls-9" x="131.73" y="51.46" width="216.2" height="65.05" rx="3.97"/><path class="cls-8" d="M556.06,84.46H358.64a9.38,9.38,0,0,0-9.39,9.39v1.69a9.38,9.38,0,0,1,9.39-9.38H556.06a9.38,9.38,0,0,1,9.39,9.38V93.85A9.38,9.38,0,0,0,556.06,84.46Z" transform="translate(-217.52 -33)"/><path class="cls-11" d="M556.06,137.86H358.64a9.38,9.38,0,0,1-9.39-9.38v11.65a9.38,9.38,0,0,0,9.39,9.38H556.06a9.38,9.38,0,0,0,9.39-9.38V128.48A9.38,9.38,0,0,1,556.06,137.86Z" transform="translate(-217.52 -33)"/><path class="cls-8" d="M544.62,101H370.08a2.43,2.43,0,0,1-2.43-2.43h0a2.44,2.44,0,0,1,2.43-2.43H544.62a2.45,2.45,0,0,1,2.43,2.43h0A2.44,2.44,0,0,1,544.62,101Z" transform="translate(-217.52 -33)"/><path class="cls-8" d="M544.62,115.83H370.08a2.44,2.44,0,0,1-2.43-2.43h0a2.43,2.43,0,0,1,2.43-2.43H544.62a2.44,2.44,0,0,1,2.43,2.43h0A2.45,2.45,0,0,1,544.62,115.83Z" transform="translate(-217.52 -33)"/><path class="cls-8" d="M544.62,130.63H370.08a2.43,2.43,0,0,1-2.43-2.43h0a2.43,2.43,0,0,1,2.43-2.42H544.62a2.44,2.44,0,0,1,2.43,2.42h0A2.44,2.44,0,0,1,544.62,130.63Z" transform="translate(-217.52 -33)"/><rect class="cls-11" x="150.13" y="61.12" width="179.39" height="4.85" rx="0.95"/><path class="cls-11" d="M544.62,113.78H370.08a2.43,2.43,0,0,1-2.43-2.43h0a2.43,2.43,0,0,1,2.43-2.42H544.62a2.44,2.44,0,0,1,2.43,2.42h0A2.44,2.44,0,0,1,544.62,113.78Z" transform="translate(-217.52 -33)"/><path class="cls-11" d="M544.62,128.59H370.08a2.43,2.43,0,0,1-2.43-2.43h0a2.44,2.44,0,0,1,2.43-2.43H544.62a2.45,2.45,0,0,1,2.43,2.43h0A2.44,2.44,0,0,1,544.62,128.59Z" transform="translate(-217.52 -33)"/><rect class="cls-12" x="73.06" y="549.26" width="144.08" height="63.76"/><rect class="cls-12" x="256.51" y="549.26" width="144.08" height="63.76"/><path class="cls-4" d="M675.67,618.7,596,710.24H582.46l-12.69-55.59a31,31,0,0,1,26.81-30.75c1.69-.23,3.39-.45,5.08-.71,5.94-.85,11.9-1.48,17.88-1.77Z" transform="translate(-217.52 -33)"/><path class="cls-8" d="M675.67,618.7H620.45A24.44,24.44,0,0,0,596,643.14v67.1Z" transform="translate(-217.52 -33)"/><circle class="cls-13" cx="360.09" cy="614.89" r="52.52" transform="matrix(0.38, -0.92, 0.92, 0.38, -563.44, 678.34)"/><path class="cls-13" d="M384.58,587a37.08,37.08,0,0,0-61.47,24.88Z" transform="translate(-217.52 -33)"/><path class="cls-13" d="M335.44,642.62a37.08,37.08,0,0,0,61.66-25Z" transform="translate(-217.52 -33)"/><line class="cls-13" x1="196.97" y1="576.31" x2="100.97" y2="615.17"/><line class="cls-13" x1="89.53" y1="586.92" x2="185.54" y2="548.06"/></g></g></svg>