<svg id="Layer_1" data-name="Layer 1" xmlns="http://www.w3.org/2000/svg" viewBox="0 0 305.17 825.1"><defs><style>.cls-1{fill:#3a56a6;}.cls-2{fill:#78a1d8;}.cls-3{fill:#fff;}.cls-4{fill:#ffbb42;}.cls-5{fill:#e6185c;}.cls-6{fill:#42a533;}.cls-7{fill:#e5e5e5;}.cls-8{fill:#ccc;}.cls-9{fill:#2c417d;}.cls-10{fill:#3093b3;}.cls-11{fill:#21315e;}.cls-12,.cls-13{fill:none;stroke-miterlimit:10;}.cls-12{stroke:#b3e7f9;stroke-width:2.85px;}.cls-13{stroke:#fff;stroke-width:15.2px;}</style></defs><title>pay</title><path class="cls-1" d="M13.45,69.25H291.73a13.44,13.44,0,0,1,13.44,13.44V568a13.44,13.44,0,0,1-13.44,13.44H13.44A13.44,13.44,0,0,1,0,568V82.69A13.45,13.45,0,0,1,13.45,69.25Z"/><path class="cls-2" d="M1037.63,494.47a13.45,13.45,0,0,1-13.44,13.45h-246a13.45,13.45,0,0,1-13.45-13.45V-21.77a13.45,13.45,0,0,1,13.45-13.44h246a13.44,13.44,0,0,1,13.44,13.44Z" transform="translate(-748.59 89)"/><path class="cls-1" d="M804.38,484H998a1.75,1.75,0,0,0,0-3.5H804.38a1.75,1.75,0,0,0,0,3.5Z" transform="translate(-748.59 89)"/><path class="cls-1" d="M804.38,45.08H998c3.48,0,3.49-5.4,0-5.4H804.38c-3.47,0-3.48,5.4,0,5.4Z" transform="translate(-748.59 89)"/><path class="cls-3" d="M931.59,279.37a15.21,15.21,0,0,1-15.21,15.21H886a15.21,15.21,0,0,1-15.21-15.21h0A15.21,15.21,0,0,1,886,264.17h30.4a15.21,15.21,0,0,1,15.21,15.2Z" transform="translate(-748.59 89)"/><path class="cls-3" d="M931.59,319.7a15.2,15.2,0,0,1-15.21,15.2H886a15.2,15.2,0,0,1-15.21-15.2h0A15.2,15.2,0,0,1,886,304.5h30.4a15.2,15.2,0,0,1,15.21,15.2Z" transform="translate(-748.59 89)"/><path class="cls-3" d="M931.59,360a15.21,15.21,0,0,1-15.21,15.21H886A15.21,15.21,0,0,1,870.77,360h0A15.21,15.21,0,0,1,886,344.83h30.4A15.21,15.21,0,0,1,931.59,360Z" transform="translate(-748.59 89)"/><path class="cls-3" d="M931.59,400.37a15.21,15.21,0,0,1-15.21,15.2H886a15.21,15.21,0,0,1-15.21-15.2h0A15.21,15.21,0,0,1,886,385.16h30.4a15.21,15.21,0,0,1,15.21,15.21Z" transform="translate(-748.59 89)"/><path class="cls-4" d="M931.59,440.7a15.21,15.21,0,0,1-15.21,15.2H886a15.21,15.21,0,0,1-15.21-15.2h0A15.21,15.21,0,0,1,886,425.49h30.4a15.21,15.21,0,0,1,15.21,15.21Z" transform="translate(-748.59 89)"/><path class="cls-3" d="M861.68,279.37a15.21,15.21,0,0,1-15.2,15.21H816.07a15.21,15.21,0,0,1-15.21-15.21h0a15.21,15.21,0,0,1,15.21-15.2h30.41a15.21,15.21,0,0,1,15.2,15.2Z" transform="translate(-748.59 89)"/><path class="cls-3" d="M861.68,319.7a15.2,15.2,0,0,1-15.2,15.2H816.07a15.2,15.2,0,0,1-15.21-15.2h0a15.2,15.2,0,0,1,15.21-15.2h30.41a15.2,15.2,0,0,1,15.2,15.2Z" transform="translate(-748.59 89)"/><path class="cls-3" d="M861.68,360a15.21,15.21,0,0,1-15.2,15.21H816.07A15.21,15.21,0,0,1,800.86,360h0a15.21,15.21,0,0,1,15.21-15.2h30.41a15.21,15.21,0,0,1,15.2,15.2Z" transform="translate(-748.59 89)"/><path class="cls-3" d="M861.68,400.37a15.21,15.21,0,0,1-15.2,15.2H816.07a15.21,15.21,0,0,1-15.21-15.2h0a15.21,15.21,0,0,1,15.21-15.21h30.41a15.21,15.21,0,0,1,15.2,15.21Z" transform="translate(-748.59 89)"/><path class="cls-5" d="M861.68,440.7a15.21,15.21,0,0,1-15.2,15.2H816.07a15.21,15.21,0,0,1-15.21-15.2h0a15.21,15.21,0,0,1,15.21-15.21h30.41a15.21,15.21,0,0,1,15.2,15.21Z" transform="translate(-748.59 89)"/><path class="cls-3" d="M1001.49,279.37a15.2,15.2,0,0,1-15.2,15.21H955.88a15.21,15.21,0,0,1-15.2-15.21h0a15.21,15.21,0,0,1,15.2-15.2h30.41a15.2,15.2,0,0,1,15.2,15.2Z" transform="translate(-748.59 89)"/><path class="cls-3" d="M1001.49,319.7a15.19,15.19,0,0,1-15.2,15.2H955.88a15.2,15.2,0,0,1-15.2-15.2h0a15.2,15.2,0,0,1,15.2-15.2h30.41a15.19,15.19,0,0,1,15.2,15.2Z" transform="translate(-748.59 89)"/><path class="cls-3" d="M1001.49,360a15.2,15.2,0,0,1-15.2,15.21H955.88A15.21,15.21,0,0,1,940.68,360h0a15.21,15.21,0,0,1,15.2-15.2h30.41a15.2,15.2,0,0,1,15.2,15.2Z" transform="translate(-748.59 89)"/><path class="cls-3" d="M1001.49,400.37a15.2,15.2,0,0,1-15.2,15.2H955.88a15.21,15.21,0,0,1-15.2-15.2h0a15.21,15.21,0,0,1,15.2-15.21h30.41a15.2,15.2,0,0,1,15.2,15.21Z" transform="translate(-748.59 89)"/><path class="cls-6" d="M1001.49,440.7a15.2,15.2,0,0,1-15.2,15.2H955.88a15.21,15.21,0,0,1-15.2-15.2h0a15.21,15.21,0,0,1,15.2-15.21h30.41a15.2,15.2,0,0,1,15.2,15.21Z" transform="translate(-748.59 89)"/><rect class="cls-1" x="45.04" y="69.25" width="215.1" height="39.66"/><rect class="cls-7" x="58.48" width="188.21" height="131.38"/><path class="cls-8" d="M856.37-57.55H946c3.48,0,3.48-5.4,0-5.4H856.37c-3.48,0-3.48,5.4,0,5.4Z" transform="translate(-748.59 89)"/><path class="cls-8" d="M828.46-14.26H973.89c2.61,0,2.61-4,0-4H828.46c-2.6,0-2.61,4,0,4Z" transform="translate(-748.59 89)"/><path class="cls-8" d="M842.84,5.74H959.52c2.61,0,2.61-4.05,0-4.05H842.84c-2.61,0-2.61,4.05,0,4.05Z" transform="translate(-748.59 89)"/><path class="cls-8" d="M830.16,29.71h142c2.61,0,2.61-4.05,0-4.05h-142c-2.61,0-2.61,4.05,0,4.05Z" transform="translate(-748.59 89)"/><rect class="cls-9" x="30.25" y="168.06" width="244.68" height="164.02" rx="13.44"/><rect class="cls-3" x="45.04" y="185.54" width="215.1" height="134.44" rx="13.44"/><path class="cls-6" d="M952.65,216.39H981.4c3.48,0,3.48-5.4,0-5.4H952.65c-3.47,0-3.48,5.4,0,5.4Z" transform="translate(-748.59 89)"/><path class="cls-5" d="M904.26,216.39H933c3.47,0,3.48-5.4,0-5.4H904.26c-3.48,0-3.48,5.4,0,5.4Z" transform="translate(-748.59 89)"/><path class="cls-10" d="M990.84,483.59V722.31A13.79,13.79,0,0,1,977,736.1H821.87a13.79,13.79,0,0,1-13.8-13.79V483.59" transform="translate(-748.59 89)"/><path class="cls-4" d="M994.28,483.59V717.71a13.78,13.78,0,0,1-13.79,13.79H825.32a13.79,13.79,0,0,1-13.8-13.79V483.59" transform="translate(-748.59 89)"/><rect class="cls-11" x="158.59" y="572.59" width="34.85" height="247.91"/><path class="cls-12" d="M973.92,483.59v82.82" transform="translate(-748.59 89)"/><path class="cls-12" d="M961.28,483.59v82.82" transform="translate(-748.59 89)"/><path class="cls-13" d="M874.69,522.31V652.19" transform="translate(-748.59 89)"/><path class="cls-3" d="M827.41,620.29v90.46a1.45,1.45,0,0,0,2.89,0V620.29a1.45,1.45,0,0,0-2.89,0Z" transform="translate(-748.59 89)"/></svg>