<svg id="Layer_1" data-name="Layer 1" xmlns="http://www.w3.org/2000/svg" viewBox="0 0 578.07 830.13"><defs><style>.cls-1{fill:#1d626d;}.cls-2{fill:#fff;}.cls-3{fill:#315156;}.cls-4{fill:#2d4a56;}.cls-5{fill:#595857;}.cls-6{fill:#ce6b6b;}</style></defs><title>tax</title><path class="cls-1" d="M803,750.58a17,17,0,0,1-16.94,16.95l-544.13,0A17,17,0,0,1,225,750.63l-.06-698.27a17,17,0,0,1,16.94-16.94l544.14,0A17,17,0,0,1,803,52.32Z" transform="translate(-224.93 62.56)"/><path class="cls-2" d="M772.58,712.05A17,17,0,0,1,755.64,729l-483.3,0a17,17,0,0,1-16.94-16.94l0-621.2A17,17,0,0,1,272.3,74l483.29,0a17,17,0,0,1,16.94,16.94Z" transform="translate(-224.93 62.56)"/><path class="cls-3" d="M620.08,16.11l-106,3.19-106-3.17s5.14,34.78-12.24,67.08H634.19C616.78,50.9,620.08,16.11,620.08,16.11Z" transform="translate(-224.93 62.56)"/><path class="cls-4" d="M635.88,80.91a12.37,12.37,0,0,1-12.37,12.38H404.4A12.38,12.38,0,0,1,392,80.93h0A12.39,12.39,0,0,1,404.4,68.55l219.11,0a12.39,12.39,0,0,1,12.37,12.38Z" transform="translate(-224.93 62.56)"/><path class="cls-4" d="M624.09,17.28a11.17,11.17,0,0,1-11.18,11.18H415A11.19,11.19,0,0,1,403.8,17.3h0A11.18,11.18,0,0,1,415,6.12l197.92,0a11.17,11.17,0,0,1,11.18,11.18Z" transform="translate(-224.93 62.56)"/><path class="cls-4" d="M576.94,1.15a63.72,63.72,0,0,0-127.44,0V20H576.94ZM513.23,5.26a24.76,24.76,0,0,1-24.76-24.74,24.76,24.76,0,0,1,24.76-24.75A24.75,24.75,0,0,1,538-19.48,24.75,24.75,0,0,1,513.23,5.26Z" transform="translate(-224.93 62.56)"/><path class="cls-5" d="M718.91,706.13H305a21.77,21.77,0,0,1-21.75-21.75V205.92A21.76,21.76,0,0,1,305,184.18H718.91a21.76,21.76,0,0,1,21.75,21.74V684.38A21.77,21.77,0,0,1,718.91,706.13ZM305,193.79a12.15,12.15,0,0,0-12.14,12.13V684.38A12.15,12.15,0,0,0,305,696.51H718.91a12.15,12.15,0,0,0,12.14-12.13V205.92a12.15,12.15,0,0,0-12.14-12.13Z" transform="translate(-224.93 62.56)"/><rect class="cls-5" x="65.66" y="348.38" width="445.03" height="9.62"/><rect class="cls-5" x="65.66" y="450.94" width="445.03" height="9.62"/><rect class="cls-5" x="65.66" y="553.04" width="445.03" height="9.61"/><rect class="cls-5" x="65.66" y="655.6" width="445.03" height="9.61"/><rect class="cls-5" x="356.85" y="252.69" width="9.61" height="514.62"/><rect class="cls-5" x="208.51" y="252.69" width="9.61" height="514.62"/><path class="cls-5" d="M328.76,129.71H315.65v-9.28h37.53v9.28H339.85v39.56H328.76Z" transform="translate(-224.93 62.56)"/><path class="cls-5" d="M365.21,156.73l-3.48,12.54H350.28l14.93-48.84H379.7l15.14,48.84H383l-3.77-12.54Zm12.39-8.26-3.05-10.36c-.86-2.9-1.73-6.52-2.46-9.42H372c-.73,2.9-1.45,6.6-2.25,9.42l-2.9,10.36Z" transform="translate(-224.93 62.56)"/><path class="cls-5" d="M425.35,169.27l-4.42-8.84c-1.82-3.41-3-5.94-4.35-8.77h-.15c-1,2.83-2.24,5.36-3.76,8.77l-4.06,8.84H396l14.13-24.71-13.62-24.13h12.68l4.27,8.91c1.45,3,2.54,5.37,3.7,8.12h.14c1.16-3.12,2.1-5.29,3.34-8.12l4.13-8.91h12.6l-13.76,23.84,14.49,25Z" transform="translate(-224.93 62.56)"/><rect class="cls-5" x="233.23" y="191.34" width="255.94" height="16.03"/><rect class="cls-6" x="233.69" y="222.93" width="255.02" height="10.99"/><rect class="cls-6" x="90.38" y="395.08" width="86.99" height="15.11"/><rect class="cls-6" x="254.3" y="504.05" width="72.8" height="12.36"/><rect class="cls-6" x="404.93" y="289.77" width="70.97" height="23.35"/><rect class="cls-5" x="250.17" y="296.64" width="72.8" height="13.28"/><rect class="cls-5" x="251.09" y="594.25" width="71.88" height="12.36"/><rect class="cls-5" x="249.26" y="395.08" width="67.76" height="18.77"/><rect class="cls-5" x="410.88" y="400.12" width="63.64" height="10.07"/><rect class="cls-5" x="101.37" y="301.68" width="46.7" height="16.02"/><rect class="cls-5" x="109.61" y="497.18" width="57.69" height="16.02"/></svg>